<?xml version="1.0" encoding="UTF-8" standalone="no"?>
<svg width="91px" height="91px" viewBox="0 0 91 91" version="1.1" xmlns="http://www.w3.org/2000/svg" xmlns:xlink="http://www.w3.org/1999/xlink" xmlns:sketch="http://www.bohemiancoding.com/sketch/ns">
    <!-- Generator: Sketch 3.3 (11970) - http://www.bohemiancoding.com/sketch -->
    <title>Archive Box</title>
    <desc>Created with Sketch.</desc>
    <defs></defs>
    <g id="Page-1" stroke="none" stroke-width="1" fill="none" fill-rule="evenodd" sketch:type="MSPage">
        <path d="M90.902,17.25 L45.902,0.903 L0.904,17.25 L0.904,28.576 L6.376,30.564 L0.903,32.551 L0.903,74.558 L45.903,90.903 L90.903,74.558 L90.903,32.551 L85.431,30.564 L90.903,28.576 L90.903,17.25 L90.902,17.25 L90.902,17.25 Z M45.902,4.16 L84.887,18.322 L45.902,32.48 L6.92,18.322 L45.902,4.16 L45.902,4.16 Z M3.971,20.507 L44.369,35.18 L44.369,41.107 L3.971,26.434 L3.971,20.507 L3.971,20.507 Z M44.369,87.09 L3.97,72.416 L3.97,35.808 L44.369,50.482 L44.369,87.09 L44.369,87.09 Z M84.887,33.623 L45.903,47.783 L6.919,33.623 L10.858,32.192 L45.902,44.92 L80.947,32.191 L84.887,33.623 Z M31.693,52.021 L16.092,46.355 C14.399,45.74 13.026,46.611 13.026,48.301 C13.026,49.991 14.399,51.86 16.092,52.476 L31.693,58.141 C33.386,58.756 34.759,57.885 34.759,56.195 C34.759,54.505 33.387,52.637 31.693,52.021 Z" id="Archive-Box" fill="#84BD00" sketch:type="MSShapeGroup"></path>
    </g>
</svg>