<?xml version="1.0" encoding="UTF-8" standalone="no"?>
<svg width="68px" height="58px" viewBox="0 0 68 58" version="1.1" xmlns="http://www.w3.org/2000/svg" xmlns:xlink="http://www.w3.org/1999/xlink" xmlns:sketch="http://www.bohemiancoding.com/sketch/ns">
    <!-- Generator: Sketch 3.3 (11970) - http://www.bohemiancoding.com/sketch -->
    <title>Burger Menu</title>
    <desc>Created with Sketch.</desc>
    <defs></defs>
    <g id="Page-1" stroke="none" stroke-width="1" fill="none" fill-rule="evenodd" sketch:type="MSPage">
        <g id="Primary-Screen" sketch:type="MSArtboardGroup" transform="translate(-40.000000, -54.000000)" stroke="#FFFFFF" stroke-width="2.5">
            <g id="Rectangle-15-+-Rectangle-16-+-Rectangle-17" sketch:type="MSLayerGroup" transform="translate(43.000000, 57.000000)">
                <path d="M0,6 C0,2.6862915 2.68396269,0 6.00115501,0 L55.998845,0 C59.3131914,0 62,2.69303423 62,6 C62,9.3137085 59.3160373,12 55.998845,12 L6.00115501,12 C2.68680862,12 0,9.30696577 0,6 Z M0,26 C0,22.6862915 2.68396269,20 6.00115501,20 L55.998845,20 C59.3131914,20 62,22.6930342 62,26 C62,29.3137085 59.3160373,32 55.998845,32 L6.00115501,32 C2.68680862,32 0,29.3069658 0,26 Z M0,46 C0,42.6862915 2.68396269,40 6.00115501,40 L55.998845,40 C59.3131914,40 62,42.6930342 62,46 C62,49.3137085 59.3160373,52 55.998845,52 L6.00115501,52 C2.68680862,52 0,49.3069658 0,46 Z" id="Burger-Menu" sketch:type="MSShapeGroup"></path>
            </g>
        </g>
    </g>
</svg>