<?xml version="1.0" encoding="UTF-8" standalone="no"?>
<svg width="88px" height="75px" viewBox="0 0 88 75" version="1.1" xmlns="http://www.w3.org/2000/svg" xmlns:xlink="http://www.w3.org/1999/xlink" xmlns:sketch="http://www.bohemiancoding.com/sketch/ns">
    <!-- Generator: Sketch 3.3 (11970) - http://www.bohemiancoding.com/sketch -->
    <title>Radio</title>
    <desc>Created with Sketch.</desc>
    <defs></defs>
    <g id="Page-1" stroke="none" stroke-width="1" fill="none" fill-rule="evenodd" sketch:type="MSPage">
        <path d="M81.264,19.537 L19.024,19.537 L48.571,8.855 C49.364,9.422 50.329,9.764 51.379,9.764 C54.053,9.764 56.221,7.596 56.221,4.922 C56.221,2.247 54.053,0.08 51.379,0.08 C48.704,0.08 46.536,2.247 46.536,4.922 C46.536,5.064 46.566,5.197 46.578,5.337 L7.803,19.355 C7.67,19.403 7.545,19.464 7.429,19.536 L7.097,19.536 C3.46,19.536 0.5,22.495 0.5,26.133 L0.5,68.154 C0.5,71.791 3.46,74.75 7.097,74.75 L81.264,74.75 C84.902,74.75 87.861,71.791 87.861,68.154 L87.861,26.133 C87.86,22.496 84.901,19.537 81.264,19.537 Z M14.015,50.106 C16.2252436,50.106 18.017,48.3142436 18.017,46.104 C18.017,43.8937564 16.2252436,42.102 14.015,42.102 C11.8047564,42.102 10.013,43.8937564 10.013,46.104 C10.013,48.3142436 11.8047564,50.106 14.015,50.106 Z M24.93,50.106 C27.1402436,50.106 28.932,48.3142436 28.932,46.104 C28.932,43.8937564 27.1402436,42.102 24.93,42.102 C22.7197564,42.102 20.928,43.8937564 20.928,46.104 C20.928,48.3142436 22.7197564,50.106 24.93,50.106 Z M36.266,50.106 C38.4762436,50.106 40.268,48.3142436 40.268,46.104 C40.268,43.8937564 38.4762436,42.102 36.266,42.102 C34.0557564,42.102 32.264,43.8937564 32.264,46.104 C32.264,48.3142436 34.0557564,50.106 36.266,50.106 Z M84.871,68.154 C84.871,70.142 83.252,71.759 81.264,71.759 L7.097,71.759 C5.107,71.759 3.49,70.142 3.49,68.154 L3.49,26.133 C3.49,24.18 5.053,22.592 6.995,22.537 C7.029,22.536 7.062,22.526 7.098,22.526 L10.755,22.526 L81.265,22.526 C83.253,22.526 84.872,24.145 84.872,26.133 L84.872,68.154 L84.871,68.154 Z M9.3,37.947 L15.492,37.947 L15.492,34.456 L16.488,34.456 L16.488,37.947 L25.458,37.947 L25.458,34.456 L26.455,34.456 L26.455,37.947 L35.425,37.947 L35.425,34.456 L36.422,34.456 L36.422,37.947 L45.392,37.947 L45.392,34.456 L46.389,34.456 L46.389,37.947 L55.358,37.947 L55.358,34.456 L56.355,34.456 L56.355,37.947 L63.237,37.947 L63.237,31.152 L64.233,31.152 L64.233,37.947 L72.133,37.947 L72.133,34.456 L73.13,34.456 L73.13,37.947 L78.156,37.947 L78.156,28.787 L9.3,28.787 L9.3,37.947 Z M53.97,64.858 L9.111,64.858 L9.111,66.154 L55.418,66.154 L55.418,66.09 L55.418,66.074 C54.908,65.699 54.423,65.296 53.97,64.858 Z M49.89,51.975 L77.7,51.975 C77.497,50.919 77.175,49.908 76.752,48.949 L50.828,48.949 C50.415,49.886 50.102,50.874 49.898,51.902 L9.111,51.902 L9.111,53.199 L49.702,53.199 C49.744,52.783 49.812,52.378 49.89,51.975 Z M53.918,64.83 L73.661,64.83 C74.58,63.936 75.372,62.919 76.023,61.805 L51.556,61.805 C52.207,62.919 52.999,63.937 53.918,64.83 Z M49.688,53.234 C49.641,53.706 49.616,54.185 49.616,54.671 C49.616,55.193 49.651,55.707 49.707,56.216 L9.111,56.216 L9.111,57.512 L49.916,57.512 C49.831,57.102 49.77,56.682 49.724,56.259 L77.87,56.259 C77.929,55.738 77.964,55.208 77.964,54.671 C77.964,54.186 77.94,53.706 77.892,53.234 L49.688,53.234 Z M63.789,68.844 C66.925,68.844 69.813,67.815 72.161,66.09 L55.418,66.09 C57.766,67.814 60.653,68.844 63.789,68.844 Z M50.864,60.451 L9.111,60.451 L9.111,61.748 L51.539,61.748 C51.314,61.358 51.109,60.957 50.922,60.546 L76.678,60.546 C77.115,59.587 77.46,58.577 77.676,57.519 L49.903,57.519 C50.112,58.544 50.447,59.52 50.864,60.451 Z M55.068,43.514 L72.51,43.514 C70.104,41.631 67.081,40.498 63.788,40.498 C60.495,40.498 57.475,41.631 55.068,43.514 Z M51.463,47.689 L76.116,47.689 C75.511,46.623 74.774,45.643 73.925,44.773 L53.654,44.773 C52.804,45.644 52.068,46.623 51.463,47.689 Z" id="Radio" fill="#FFFFFF" sketch:type="MSShapeGroup"></path>
    </g>
</svg>