<?xml version="1.0" encoding="UTF-8" standalone="no"?>
<svg width="516px" height="247px" viewBox="0 0 516 247" version="1.1" xmlns="http://www.w3.org/2000/svg" xmlns:xlink="http://www.w3.org/1999/xlink" xmlns:sketch="http://www.bohemiancoding.com/sketch/ns">
    <!-- Generator: Sketch 3.3 (11970) - http://www.bohemiancoding.com/sketch -->
    <title>SS_Logo - Dark Copy</title>
    <desc>Created with Sketch.</desc>
    <defs></defs>
    <g id="Page-1" stroke="none" stroke-width="1" fill="none" fill-rule="evenodd" sketch:type="MSPage">
        <g id="SS_Logo---Dark-Copy" sketch:type="MSLayerGroup">
            <g id="Logo" transform="translate(174.000000, 0.000000)" sketch:type="MSShapeGroup">
                <path d="M164.522777,81 C164.522777,125.7 127.776573,162 82.527115,162 C37.2776573,162 0.531453362,125.7 0.531453362,81 C0.531453362,36.3 37.2776573,0 82.527115,0 C127.776573,0 164.522777,36.225 164.522777,81" id="Shape" fill="#A0957F"></path>
                <path d="M147.592191,63.9 C147.592191,44.85 131.952278,29.4 112.744035,29.25 C106.670282,19.05 95.4338395,12.15 82.527115,12.15 C69.6963124,12.15 58.4598698,19.05 52.3101952,29.25 C33.1019523,29.325 17.462039,44.85 17.462039,63.9 C17.462039,70.125 19.132321,75.975 22.0932755,81 C19.208243,86.025 17.462039,91.875 17.462039,98.1 C17.462039,117.15 33.1019523,132.6 52.3101952,132.75 C58.3839479,142.95 69.6203905,149.85 82.527115,149.85 C95.3579176,149.85 106.670282,142.95 112.744035,132.75 C131.952278,132.6 147.592191,117.15 147.592191,98.1 C147.592191,91.875 145.921909,86.025 142.960954,81 C145.921909,75.9 147.592191,70.125 147.592191,63.9 L147.592191,63.9 Z M146.75705,63.9 C146.75705,69.825 145.238612,75.375 142.505423,80.175 C138.177874,73.125 131.344902,67.65 123.221258,65.1 C124.208243,64.275 125.27115,63.525 125.878525,62.55 L124.967462,62.7 C127.245119,59.7 129.522777,57.9 130.585683,54.075 C130.585683,54.075 128.156182,55.8 127.624729,57 C127.776573,56.175 127.548807,55.875 127.548807,55.875 C126.941432,57.075 125.726681,57.75 124.89154,58.8 L125.043384,57.9 C125.043384,57.9 123.67679,58.725 122.689805,60.45 C122.462039,60.225 122.689805,59.475 122.689805,59.475 C121.247289,60.525 120.715835,61.575 119.197397,62.325 C118.893709,62.475 117.375271,63.3 116.464208,63.675 C116.236443,63.675 115.932755,63.6 115.704989,63.6 C115.704989,63.525 115.780911,63.375 115.932755,63.225 C115.32538,63.15 114.94577,63.3 114.566161,63.6 L113.958785,63.6 C113.958785,63.45 114.034707,63.3 114.186551,63.075 C113.958785,63.075 113.73102,63.15 113.503254,63.225 C116.160521,58.35 117.678959,52.8 117.678959,46.875 C117.678959,40.875 116.084599,35.175 113.35141,30.225 C131.800434,30.525 146.75705,45.525 146.75705,63.9 L146.75705,63.9 Z M113.427332,98.775 C113.35141,98.7 113.275488,98.55 113.275488,98.475 C113.806941,98.475 114.414317,98.4 114.94577,98.4 C114.338395,98.55 113.806941,98.7 113.427332,98.775 L113.427332,98.775 Z M112.212581,131.85 C99.9132321,131.775 89.208243,125.25 83.2863341,115.575 C86.4750542,115.5 89.5878525,115.05 92.472885,114.15 C92.472885,114.225 92.5488069,114.225 92.5488069,114.3 C92.5488069,114.3 92.5488069,114.225 92.6247289,114.15 C92.8524946,114.075 93.0802603,114 93.3839479,113.925 C93.8394794,114.6 93.9913232,115.125 94.8264642,115.575 C94.9023861,115.2 94.978308,114.6 94.978308,114.6 C94.978308,114.6 95.8893709,115.425 98.0151844,115.875 C97.4078091,115.425 97.2559653,114.225 96.5726681,113.325 C96.9522777,113.1 97.4078091,113.4 97.4078091,113.4 C97.3318872,113.325 97.1800434,112.95 96.8763557,112.575 C99.3058568,111.525 101.583514,110.1 103.633406,108.525 C104.392625,108.675 105.227766,108.825 106.214751,108.675 C105.607375,108.525 105.151844,107.85 105.151844,107.85 C105.151844,107.85 107.125813,108.3 109.707158,107.925 C109.099783,107.7 108.340564,106.8 108.340564,106.8 C108.340564,106.8 110.845987,107.625 114.718004,106.275 C113.579176,105.75 113.882863,104.775 113.882863,104.775 L115.021692,104.775 C116.084599,108.075 116.691974,111.525 116.691974,115.2 C116.767896,121.275 115.097614,126.975 112.212581,131.85 L112.212581,131.85 Z M48.2863341,115.2 C48.2863341,112.35 48.6659436,109.575 49.3492408,106.875 C52.6898048,107.7 54.8156182,107.1 54.8156182,107.1 C54.8156182,107.1 54.0563991,108 53.4490239,108.225 C56.0303688,108.6 58.0043384,108.15 58.0043384,108.15 C58.0043384,108.15 57.5488069,108.825 56.9414317,108.975 C58.6876356,109.125 60.1301518,108.75 61.0412148,108.3 C61.1930586,108.45 61.4208243,108.6 61.5726681,108.75 C61.4967462,108.825 61.4208243,108.9 61.3449024,108.975 C61.4967462,108.975 61.64859,108.9 61.8763557,108.9 C63.6225597,110.175 65.4446855,111.225 67.3427332,112.125 C67.1908894,112.425 67.0390456,112.65 67.0390456,112.725 C67.0390456,112.725 67.494577,112.5 67.8741866,112.65 C67.3427332,113.1 67.1149675,114.3 66.5835141,114.675 C68.9370933,114.525 69.4685466,113.475 69.4685466,113.475 C69.4685466,113.475 69.6203905,114 69.4685466,114.375 C70,114.075 70.2277657,113.775 70.4555315,113.4 C74.0238612,114.675 77.8199566,115.5 81.8438178,115.575 C75.845987,125.25 65.1409978,131.775 52.9175705,131.85 C49.9566161,126.975 48.2863341,121.275 48.2863341,115.2 L48.2863341,115.2 Z M23.0802603,81 C27.0281996,74.4 33.1778742,69.225 40.5422993,66.525 C41.1496746,67.125 41.6052061,67.8 41.9088937,68.475 C41.4533623,68.775 40.845987,68.4 40.845987,68.4 C41.3774403,69.9 42.516269,71.1 43.9587852,71.775 C43.7310195,72.15 42.4403471,72.15 42.4403471,72.15 C42.4403471,72.15 43.5032538,73.8 44.5661605,74.175 C43.9587852,74.55 43.35141,74.1 43.35141,74.1 C44.2624729,76.275 46.4642082,77.25 47.527115,79.35 C46.7678959,80.025 45.4772234,79.575 45.4772234,79.575 C46.0845987,80.175 46.7678959,80.775 47.4511931,81.375 C47.527115,86.925 48.8937093,92.1 51.3232104,96.75 C50.3362256,96.825 49.3492408,96.9 48.4381779,97.425 C37.5813449,96.15 28.3947939,89.85 23.0802603,81 L23.0802603,81 Z M52.7657267,30.075 C61.8763557,30.15 70.1518438,33.75 76.2255965,39.6 C76.1496746,40.5 76.0737527,41.175 76.1496746,41.175 C75.5422993,40.875 75.0867679,39.675 75.010846,39.075 C74.5553145,40.2 75.9219089,42.225 74.9349241,42.525 C74.0997831,42.75 73.2646421,42.975 72.3535792,43.2 C73.0368764,43.575 74.8590022,46.575 73.4924078,46.5 C72.8850325,46.2 72.5813449,45.6 72.6572668,44.85 C72.1258134,45.9 71.9739696,46.95 71.8980477,47.925 C63.7744035,50.475 56.9414317,55.95 52.6138829,63 C49.8806941,58.2 48.362256,52.65 48.362256,46.725 C48.2863341,40.725 49.9566161,35.025 52.7657267,30.075 L52.7657267,30.075 Z M116.767896,46.8 C116.767896,52.725 115.249458,58.275 112.516269,63.075 C107.581345,55.05 99.4577007,49.125 89.8156182,47.1 C89.3600868,45 88.4490239,43.05 87.0824295,41.325 C93.308026,34.5 102.266811,30.15 112.212581,30.075 C115.097614,35.025 116.767896,40.725 116.767896,46.8 L116.767896,46.8 Z M116.767896,81 C116.767896,86.625 115.32538,91.95 112.895879,96.6 C112.592191,96.6 112.364425,96.525 112.060738,96.525 C110.390456,93.975 108.416486,91.65 106.138829,89.625 C106.670282,89.475 107.581345,89.1 108.264642,88.65 C107.353579,88.575 107.125813,87.675 107.125813,87.675 C107.125813,87.675 109.479393,87.225 110.845987,86.325 C110.010846,86.475 109.403471,86.025 109.403471,86.025 C111.984816,84.225 114.414317,81.525 116.616052,79.125 C116.691974,79.725 116.767896,80.325 116.767896,81 L116.767896,81 Z M92.7006508,113.25 L92.7006508,113.1 L92.8524946,113.25 L92.7006508,113.25 L92.7006508,113.25 Z M71.8221258,48.9 C71.8221258,49.8 71.9739696,50.4 71.9739696,50.4 C71.9739696,50.4 71.2906725,50.025 71.0629067,49.2 C71.2906725,49.05 71.5184382,48.975 71.8221258,48.9 L71.8221258,48.9 Z M110.086768,96.525 C110.086768,96.525 110.390456,96.375 110.770065,96.15 C110.845987,96.3 110.921909,96.375 110.997831,96.525 L110.086768,96.525 L110.086768,96.525 Z M108.416486,95.55 C108.340564,95.25 109.403471,94.725 109.631236,94.65 C109.859002,94.875 110.010846,95.175 110.238612,95.4 C109.631236,95.4 109.023861,95.4 108.416486,95.55 L108.416486,95.55 Z M106.97397,94.65 C106.97397,94.65 107.277657,93.675 107.277657,93.15 C105.607375,94.2 102.950108,93.45 101.052061,93.975 C100.21692,94.2 99.3817787,94.425 98.5466377,94.725 C98.2429501,94.575 97.9392625,94.425 97.6355748,94.275 C100.368764,92.85 103.40564,92.25 106.214751,90.825 C107.429501,92.025 108.56833,93.225 109.631236,94.575 C109.327549,94.575 108.492408,94.35 106.97397,94.65 L106.97397,94.65 Z M82.8308026,113.775 C82.8308026,113.25 82.8308026,112.5 82.7548807,111.225 C82.6789588,109.35 81.3882863,102.525 83.8177874,101.625 C84.8806941,102.75 85.1843818,104.7 85.6399132,106.425 C84.9566161,108.975 84.0455531,111.45 82.8308026,113.775 L82.8308026,113.775 Z M67.3427332,95.55 C67.1908894,95.55 67.0390456,95.475 66.8112798,95.4 C66.8872017,95.325 67.0390456,95.325 67.1149675,95.25 C67.2668113,95.4 67.3427332,95.475 67.3427332,95.55 L67.3427332,95.55 Z M107.581345,64.65 C107.885033,64.575 108.18872,64.575 108.56833,64.5 C108.18872,64.875 107.809111,65.325 107.277657,65.625 C107.277657,65.625 107.201735,65.25 107.581345,64.65 L107.581345,64.65 Z M102.039046,66.225 C101.81128,66.525 99.989154,69.075 99.6095445,68.625 C99.2299349,68.175 99.6095445,67.2 99.8373102,66.825 C99.0780911,67.425 98.2429501,69.675 97.4078091,69.75 C97.2559653,69.75 97.483731,68.4 97.483731,68.25 C96.9522777,68.7 95.6616052,71.55 95.6616052,71.55 C95.4338395,71.55 95.3579176,70.5 95.3579176,70.35 C94.9023861,71.025 94.4468547,74.025 93.7635575,74.1 C93.3839479,74.175 93.2321041,72.6 93.308026,72.3 C92.1691974,74.175 92.0173536,76.35 90.6507592,78.15 C90.1193059,78.825 89.5878525,79.425 89.0563991,80.025 C88.373102,80.175 87.6898048,80.25 86.9305857,80.325 C87.0065076,80.1 87.0065076,79.95 87.0824295,79.8 C87.9934924,78.525 88.373102,76.875 89.5878525,75.825 C90.7266811,74.85 91.2581345,72.975 91.637744,71.4 C95.5097614,68.475 99.989154,66.3 104.848156,65.25 C103.633406,65.775 102.342733,68.625 102.039046,66.225 L102.039046,66.225 Z M105,65.1 C105.607375,64.95 106.290672,64.875 106.898048,64.725 C106.138829,65.175 105.151844,65.775 105.151844,65.775 C105.075922,65.625 105,65.4 105,65.1 L105,65.1 Z M76.3015184,81.15 C75.5422993,81.3 74.7830803,81.45 74.0238612,81.675 C73.4164859,81.225 72.9609544,80.625 72.6572668,80.025 C73.7960954,80.4 75.010846,80.625 76.2255965,80.85 C76.2255965,80.925 76.3015184,81 76.3015184,81.15 L76.3015184,81.15 Z M76.3774403,81.975 C76.3015184,82.275 76.1496746,82.575 75.6941432,82.575 C75.4663774,82.5 75.3145336,82.35 75.0867679,82.2 C75.4663774,82.125 75.9219089,82.05 76.3774403,81.975 L76.3774403,81.975 Z M87.1583514,82.125 C86.8546638,82.5 86.7787419,82.2 86.7787419,81.75 C87.0065076,81.75 87.2342733,81.825 87.462039,81.825 C87.3101952,81.9 87.2342733,81.975 87.1583514,82.125 L87.1583514,82.125 Z M72.6572668,75.3 C72.9609544,75.75 74.7830803,78 75.7700651,79.875 C74.4793926,79.65 73.2646421,79.275 72.0498915,78.9 C71.1388286,76.8 70.9110629,74.4 69.4685466,72.3 C69.4685466,72.6 69.3926247,74.175 69.0130152,74.1 C68.329718,74.025 67.8741866,71.025 67.4186551,70.425 C67.4186551,70.575 67.4186551,71.7 67.1149675,71.625 C67.1149675,71.625 65.7483731,68.775 65.2169197,68.325 C65.2928416,68.55 65.5206074,69.9 65.3687636,69.9 C64.4577007,69.825 63.6984816,67.575 62.9392625,66.975 C63.1670282,67.35 63.5466377,68.4 63.1670282,68.775 C62.7874187,69.225 60.9652928,66.675 60.7375271,66.375 C60.4338395,68.85 58.9913232,65.775 57.7765727,65.25 C57.7765727,65.475 57.7006508,65.775 57.6247289,66 C57.6247289,66 55.3470716,64.575 55.0433839,64.575 C55.7266811,65.325 55.5748373,65.85 55.5748373,65.85 C54.8156182,65.4 54.3600868,64.725 53.7527115,64.2 C60.5856833,64.425 66.8872017,66.6 72.1258134,70.2 C71.5184382,70.2 70.7592191,69.9 70.7592191,69.9 C71.0629067,71.775 71.670282,73.725 72.6572668,75.3 L72.6572668,75.3 Z M66.659436,94.575 C66.2798265,94.725 65.824295,94.95 65.4446855,95.1 C64.3058568,94.8 63.1670282,94.425 62.0281996,94.125 C60.2819957,93.675 57.8524946,94.275 56.1822126,93.525 C56.7895879,92.85 57.3969631,92.175 58.0043384,91.5 C61.1171367,92.25 64.7613883,92.175 66.659436,94.575 L66.659436,94.575 Z M55.8785249,94.05 C55.9544469,94.5 56.1062907,94.95 56.1062907,94.95 C55.802603,94.875 55.4989154,94.875 55.2711497,94.875 C55.4229935,94.575 55.6507592,94.35 55.8785249,94.05 L55.8785249,94.05 Z M54.5119306,95.775 C54.5119306,95.85 54.5878525,95.85 54.5878525,95.925 L54.4360087,95.925 C54.5119306,95.85 54.5119306,95.85 54.5119306,95.775 L54.5119306,95.775 Z M80.4772234,101.325 C81.9956616,101.85 81.691974,109.725 81.691974,112.65 C80.5531453,110.325 79.6420824,107.85 79.1106291,105.225 C79.3383948,103.725 79.6420824,102.3 80.4772234,101.325 L80.4772234,101.325 Z M96.7245119,94.8 C96.8763557,94.875 97.0281996,94.95 97.1800434,95.025 C96.64859,95.175 96.1930586,95.325 95.5856833,95.4 C96.0412148,95.175 96.4208243,95.025 96.7245119,94.8 L96.7245119,94.8 Z M87.7657267,81 C87.9175705,81 88.0694143,80.925 88.2212581,80.925 C88.2212581,81 88.1453362,81 88.1453362,81.075 C87.9934924,81 87.8416486,81 87.7657267,81 L87.7657267,81 Z M111.073753,63.525 C110.770065,63.525 110.542299,63.525 110.238612,63.6 C110.238612,63.45 110.314534,63.375 110.314534,63.375 C110.086768,63.45 109.934924,63.525 109.707158,63.675 C103.101952,64.2 97.1041215,66.525 92.0173536,70.125 L92.0173536,70.125 C92.0173536,70.125 91.1822126,70.575 90.4989154,70.425 C91.637744,68.625 93.308026,65.1 93.2321041,63.375 C93.2321041,63.375 92.7006508,63.9 92.0932755,64.05 C92.9284165,62.25 93.0043384,60.225 93.0043384,59.025 C92.7006508,60.15 91.7136659,60.9 91.7136659,60.9 C92.2451193,57.975 92.8524946,55.275 92.1691974,52.275 C92.1691974,52.275 91.7136659,54 91.1822126,54.375 C91.3340564,52.725 91.2581345,50.25 91.0303688,49.05 C90.8785249,50.025 90.0433839,50.475 90.0433839,50.475 C90.1193059,49.65 90.0433839,48.825 89.967462,48.075 C99.0780911,50.1 106.746204,55.725 111.529284,63.3 C111.37744,63.3 111.225597,63.375 111.073753,63.525 L111.073753,63.525 Z M70.9110629,54.225 C70.4555315,53.925 69.8481562,52.125 69.8481562,52.125 C69.2407809,55.125 70,57.825 70.5314534,60.75 C70.5314534,60.75 69.5444685,60 69.164859,58.875 C69.164859,60.6 69.3926247,62.325 70.2277657,63.9 C69.6963124,63.75 69.4685466,65.4 69.3926247,65.55 C69.0889371,66.75 69.6203905,67.575 70.3036876,68.325 C65.2928416,65.4 59.4468547,63.6 53.2212581,63.45 C57.2451193,56.925 63.4707158,51.825 70.835141,49.2 C70.7592191,50.475 70.7592191,52.725 70.9110629,54.225 L70.9110629,54.225 Z M53.5249458,86.25 C53.5249458,86.25 53.4490239,86.925 52.2342733,87.075 C53.6008677,88.05 55.802603,87.9 55.802603,87.9 C55.802603,87.9 55.7266811,89.475 54.8156182,89.55 C55.8785249,90.3 57.3969631,90 57.3969631,90 C57.3969631,90 57.0932755,90.675 56.0303688,90.975 C56.3340564,91.125 56.7136659,91.2 57.0932755,91.275 C56.0303688,92.325 55.1193059,93.525 54.208243,94.725 C53.6767896,94.8 53.373102,94.875 53.373102,94.875 C53.373102,94.875 53.6767896,95.025 53.9045553,95.175 C53.7527115,95.4 53.6008677,95.55 53.4490239,95.7 C52.9175705,95.7 52.3861171,95.775 51.9305857,95.925 C49.8047722,91.725 48.5140998,87 48.362256,82.05 C50.032538,83.7 51.7787419,85.2 53.5249458,86.25 L53.5249458,86.25 Z M52.0824295,96.375 C52.6138829,96.45 52.9175705,96.6 52.9175705,96.6 C52.6898048,96.675 52.462039,96.675 52.2342733,96.675 C52.1583514,96.525 52.0824295,96.45 52.0824295,96.375 L52.0824295,96.375 Z M62.1800434,107.7 C62.1800434,107.7 62.1041215,107.85 62.0281996,108.075 C61.9522777,108 61.8763557,108 61.8763557,107.925 C62.0281996,107.775 62.1800434,107.7 62.1800434,107.7 L62.1800434,107.7 Z M65.4446855,107.475 C65.4446855,107.475 65.5206074,108 65.1409978,108.45 C69.4685466,107.475 72.0498915,103.275 75.9219089,101.4 C73.340564,104.25 69.4685466,106.65 67.9501085,110.25 C68.1019523,110.25 68.2537961,110.25 68.4815618,110.325 C68.4815618,110.325 68.1778742,110.925 67.7982646,111.45 C66.1279826,110.7 64.5336226,109.8 63.0911063,108.75 C64.4577007,108.3 65.4446855,107.475 65.4446855,107.475 L65.4446855,107.475 Z M71.2906725,112.2 C71.2147505,112.425 71.3665944,112.725 71.5184382,112.95 C71.2906725,112.875 71.0629067,112.8 70.9110629,112.725 C70.9110629,112.575 71.0629067,112.35 71.2906725,112.2 L71.2906725,112.2 Z M76.681128,109.275 C76.681128,109.275 77.0607375,109.875 76.7570499,110.775 C77.9718004,110.025 78.4273319,108.675 78.7310195,107.175 C79.4902386,109.8 80.4772234,112.35 81.7678959,114.675 C81.7678959,114.675 81.7678959,114.675 81.7678959,114.75 C78.5032538,114.675 75.3904555,114.225 72.4295011,113.325 C74.3275488,112.575 76.1496746,111.3 76.681128,109.275 L76.681128,109.275 Z M86.1713666,107.85 C86.5509761,108.6 87.0065076,109.275 87.8416486,109.575 C87.6898048,108.975 87.6898048,108.525 87.6898048,108.525 C88.4490239,110.85 90.4229935,111.825 91.8655098,113.475 C89.132321,114.225 86.2472885,114.675 83.2104121,114.75 C84.5010846,112.575 85.4121475,110.25 86.1713666,107.85 L86.1713666,107.85 Z M95.8893709,110.7 C96.1171367,110.625 96.2689805,110.55 96.4967462,110.625 C93.7635575,107.4 90.802603,104.175 87.462039,101.55 L87.462039,101.475 C91.2581345,103.425 93.8394794,107.4 98.0911063,108.3 C97.6355748,107.85 97.7874187,107.325 97.7874187,107.325 C97.7874187,107.325 99.7613883,109.05 101.963124,108.75 C101.279826,108.225 101.127983,107.475 101.127983,107.475 C101.127983,107.475 101.735358,107.925 102.798265,108.3 C100.900217,109.725 98.7744035,110.925 96.5726681,111.9 C96.1171367,111.225 95.813449,110.775 95.8893709,110.7 L95.8893709,110.7 Z M116.616052,78.6 C116.236443,78.6 115.704989,78.675 115.477223,78.525 C115.780911,78 116.084599,77.55 116.54013,77.1 C116.54013,77.55 116.54013,78.075 116.616052,78.6 L116.616052,78.6 Z M87.0065076,41.4 C87.0065076,41.625 87.0065076,42.45 86.70282,42.825 C86.626898,42.525 86.5509761,42.225 86.4750542,41.925 C86.70282,41.775 86.8546638,41.55 87.0065076,41.4 L87.0065076,41.4 Z M113.35141,97.65 C113.882863,97.425 114.566161,97.275 114.793926,97.275 C114.414317,97.05 114.110629,96.9 113.73102,96.75 C116.160521,92.025 117.603037,86.625 117.603037,81 C117.603037,79.425 117.451193,77.85 117.223427,76.35 C118.058568,75.6 118.969631,74.85 119.425163,73.65 C119.425163,73.65 118.893709,74.1 118.210412,73.725 C119.273319,73.275 120.336226,71.625 120.336226,71.625 C120.336226,71.625 119.045553,71.625 118.817787,71.25 C120.260304,70.5 121.399132,69.3 121.930586,67.8 C121.930586,67.8 121.399132,68.25 120.867679,67.95 C121.171367,67.05 121.778742,66.375 122.462039,65.775 C130.737527,68.25 137.646421,73.8 141.97397,81 C136.127983,90.75 125.498915,97.35 113.35141,97.65 L113.35141,97.65 Z M82.527115,12.975 C94.9023861,12.975 105.759219,19.5 111.75705,29.25 C101.659436,29.475 92.6247289,33.9 86.3232104,40.875 C85.9436009,39 85.4880694,36.975 85.3362256,35.175 C85.3362256,35.175 84.8047722,36.675 84.2733189,36.45 C83.8937093,34.725 84.5010846,31.2 83.6659436,27.75 C83.5900217,28.8 82.7548807,29.475 82.7548807,29.475 C81.691974,25.125 82.8308026,19.95 80.7049892,16.05 C81.0845987,20.625 78.35141,24.825 79.4143167,29.55 C79.0347072,29.625 78.4273319,28.125 78.4273319,28.125 C78.2754881,29.25 78.8828633,36 78.4273319,36.3 C77.8199566,36.675 77.0607375,34.5 77.0607375,34.35 C76.9088937,34.8 76.6052061,36.9 76.3774403,38.7 C70.3036876,33.075 62.1800434,29.625 53.29718,29.4 C59.2950108,19.5 70.1518438,12.975 82.527115,12.975 L82.527115,12.975 Z M18.29718,63.9 C18.29718,45.525 33.2537961,30.525 51.7787419,30.15 C49.0455531,35.1 47.4511931,40.8 47.4511931,46.8 C47.4511931,52.875 49.0455531,58.575 51.8546638,63.525 L51.3232104,63.525 C51.1713666,63.45 51.0195228,63.3 50.867679,63.225 L50.867679,63.525 L50.5639913,63.525 C50.2603037,63.225 49.8806941,62.85 49.1214751,62.625 C49.3492408,63 49.197397,63.45 49.197397,63.45 C48.8937093,62.775 48.2863341,62.1 47.4511931,61.95 C48.5140998,64.575 44.9457701,61.35 44.1106291,61.275 C44.186551,61.575 44.186551,61.875 44.0347072,62.175 C43.1236443,62.25 41.5292842,60.3 40.2386117,60.15 C40.2386117,60.15 40.6182213,60.9 40.3904555,61.05 C39.7071584,59.175 37.8091106,58.875 37.8091106,58.875 L37.9609544,59.4 C36.670282,58.425 34.7722343,58.35 33.7093275,57.075 C34.3926247,59.475 37.1258134,60.3 37.7331887,62.925 L36.2906725,62.325 C37.1258134,63.6 38.6442516,64.65 39.8590022,65.775 C32.6464208,68.55 26.5726681,73.65 22.5488069,80.1 C19.8156182,75.375 18.29718,69.75 18.29718,63.9 L18.29718,63.9 Z M18.29718,98.1 C18.29718,92.175 19.8156182,86.625 22.5488069,81.825 C28.318872,91.2 38.4924078,97.725 50.2603037,98.4 C50.3362256,98.475 50.4121475,98.55 50.3362256,98.625 C50.1843818,98.85 46.6160521,98.625 46.0086768,98.925 C46.691974,98.925 47.2234273,99.15 47.527115,99.675 C47.527115,99.45 43.6550976,100.2 43.1995662,100.575 C43.5791757,100.65 44.6420824,101.4 44.6420824,101.4 C42.8958785,101.625 41.3774403,100.725 39.6312364,101.4 C40.010846,101.625 40.2386117,101.925 40.2386117,101.925 C40.2386117,101.925 38.4924078,101.625 36.7462039,102.075 C32.3427332,103.125 29.989154,102.525 29.989154,102.525 C33.2537961,104.925 38.4924078,106.95 42.516269,105.3 C42.516269,105.3 42.8199566,105.9 42.2125813,106.275 C43.8828633,106.575 47.2993492,106.2 48.9696312,105.3 C48.8177874,105.675 48.7418655,106.125 48.6659436,106.575 C48.5900217,106.575 48.5900217,106.65 48.5140998,106.65 L48.5900217,106.65 C47.9067245,109.35 47.4511931,112.2 47.4511931,115.125 C47.4511931,121.125 49.0455531,126.825 51.7787419,131.775 C33.2537961,131.475 18.29718,116.475 18.29718,98.1 L18.29718,98.1 Z M82.527115,149.025 C70.1518438,149.025 59.2950108,142.5 53.29718,132.75 C65.1409978,132.525 75.6182213,126.375 81.7678959,117.225 L81.7678959,119.325 C81.7678959,123.9 81.691974,128.4 81.9956616,132.975 C82.1475054,135.825 82.0715835,138.6 81.2364425,141.375 C80.9327549,142.35 79.8698482,144.15 81.0086768,144.975 C85.6399132,148.35 83.8177874,136.8 83.6659436,134.925 C83.2104121,129.45 82.8308026,124.05 82.8308026,118.575 L82.8308026,116.475 C88.9045553,126.075 99.6095445,132.525 111.75705,132.75 C105.759219,142.425 94.9023861,149.025 82.527115,149.025 L82.527115,149.025 Z M146.75705,98.1 C146.75705,116.475 131.800434,131.475 113.275488,131.85 C116.008677,126.9 117.603037,121.2 117.603037,115.2 C117.603037,111.6 116.995662,108.075 116.008677,104.775 C116.995662,104.775 117.982646,104.7 118.893709,104.55 C120.184382,104.325 121.247289,105.075 122.537961,104.85 C122.006508,104.4 122.234273,103.875 122.234273,103.875 C125.574837,105.15 130.433839,104.025 133.24295,101.85 C129.826464,102.225 126.334056,101.325 122.993492,101.85 C122.993492,101.85 123.145336,101.55 123.600868,101.325 C122.006508,100.95 119.956616,101.85 118.590022,100.95 C118.590022,100.95 119.577007,100.35 119.956616,100.275 C118.817787,99.825 112.516269,100.575 116.91974,98.25 C127.776573,96.9 137.114967,90.675 142.581345,81.825 C145.16269,86.625 146.75705,92.175 146.75705,98.1 L146.75705,98.1 Z" id="Shape" fill="#FFFFFF"></path>
            </g>
            <g id="Text" transform="translate(0.490239, 178.000000)" fill="#A0957F" sketch:type="MSShapeGroup">
                <path d="M0.32166914,55.5 L2.15178673,55.5 C3.98190433,64.5 10.3873159,66.3 15.8776687,66.3 C23.1981391,66.3 28.2309624,62.7 28.2309624,56.85 C28.2309624,51 23.6556685,49.65 15.8776687,47.85 C8.09966891,45.6 0.32166914,43.8 0.32166914,33.9 C0.32166914,26.25 5.35449252,20.4 17.2502569,20.4 C21.8255509,20.4 25.9433154,21.3 29.6035506,23.1 L31.4336682,21.3 L32.348727,22.2 L32.348727,32.1 L30.5186094,32.1 C28.6884918,23.1 22.2830803,21.3 17.7077863,21.3 C11.3023747,21.3 7.18461012,24.9 7.18461012,29.85 C7.18461012,35.25 11.3023747,36.6 17.7077863,38.4 C25.9433154,41.1 35.0939034,43.35 35.0939034,53.7 C35.0939034,61.8 29.6035506,67.2 16.3351981,67.2 C11.3023747,67.2 6.72708072,66.3 3.06684553,64.5 L1.23672794,66.3 L0.32166914,65.4 L0.32166914,55.5 L0.32166914,55.5 Z" id="Shape"></path>
                <path d="M64.8333143,61.8 C60.2580203,65.85 54.3101381,68.1 47.9047266,68.1 C39.211668,68.1 35.0939034,63.6 35.0939034,57.3 C35.0939034,46.5 46.074609,44.7 64.8333143,42 L64.8333143,33 C64.8333143,26.7 61.1730791,22.2 54.7676675,22.2 C52.4800206,22.2 50.1923736,22.65 47.9047266,24.45 L47.9047266,32.1 C47.9047266,35.7 45.6170796,38.4 41.9568444,38.4 C38.7541386,38.4 36.4664916,36.15 36.4664916,32.55 C36.4664916,25.35 45.6170796,21.3 55.2251969,21.3 C68.0360201,21.3 74.8989611,27.6 74.8989611,35.25 L74.8989611,63.6 C74.8989611,65.4 75.8140199,65.85 77.1866081,65.85 C78.1016669,65.85 79.4742551,65.4 80.3893138,64.95 L80.8468432,65.4 C79.0167257,67.2 75.8140199,68.1 72.1537847,68.1 C68.4935495,67.65 65.7483731,66.3 64.8333143,61.8 L64.8333143,61.8 L64.8333143,61.8 Z M64.8333143,43.35 C51.5649618,45.6 45.1595502,46.05 45.1595502,56.4 C45.1595502,62.25 48.362256,64.95 52.9375499,64.95 C57.0553145,64.95 61.6306085,62.7 64.8333143,59.55 L64.8333143,43.35 L64.8333143,43.35 Z" id="Shape"></path>
                <path d="M109.671195,24.45 C106.926019,22.65 104.180843,22.2 101.435666,22.2 C92.2850782,22.2 87.2522548,30.3 87.2522548,42.9 C87.2522548,56.85 93.200137,65.4 105.095901,65.4 C110.586254,65.4 115.161548,63.6 118.821783,60 L119.736842,61.35 C115.161548,65.85 109.213666,68.55 100.978137,68.55 C84.9646078,68.55 77.1866081,59.1 77.1866081,45.15 C77.1866081,30.3 85.8796666,21.3 101.435666,21.3 C111.501313,21.3 121.56696,25.35 121.56696,33.45 C121.56696,37.5 118.821783,39.3 115.619078,39.3 C111.958842,39.3 109.671195,37.05 109.671195,33 L109.671195,24.45 L109.671195,24.45 Z" id="Shape"></path>
                <path d="M124.312136,24 L118.821783,22.65 L118.821783,21.75 L133.005195,20.4 L134.377783,21.75 L133.920253,29.85 L134.377783,30.3 C134.377783,30.3 138.953077,20.85 148.103665,20.85 C154.051547,20.85 159.08437,24.9 159.08437,30.75 C159.08437,35.25 156.339194,37.05 153.136488,37.05 C149.476253,37.05 147.188606,34.8 147.188606,30.75 L147.188606,23.1 C146.731077,22.65 146.273547,22.65 145.816018,22.65 C138.495547,22.65 134.377783,33.45 134.377783,33.45 L134.377783,64.95 L143.070841,66.75 L143.070841,67.65 L118.821783,67.65 L118.821783,66.75 L124.312136,64.95 L124.312136,24 L124.312136,24 Z" id="Shape"></path>
                <path d="M167.777429,44.25 C167.777429,57.3 173.725311,64.95 186.078605,64.95 C191.568958,64.95 196.144252,63.6 199.804487,59.55 L200.719546,60.45 C196.144252,64.95 190.196369,67.65 181.503311,67.65 C165.032253,67.65 157.254253,57.75 157.254253,44.25 C157.254253,29.4 167.3199,19.95 181.045781,19.95 C193.399075,19.95 202.092134,27.6 202.092134,38.85 C202.092134,39.75 202.092134,41.55 201.634604,42.45 L200.262016,43.8 L167.777429,43.8 L167.777429,44.25 Z M167.777429,42.9 L192.941546,41.55 C192.941546,28.5 188.823781,22.2 181.96084,22.2 C175.097899,22.2 168.234958,28.5 167.777429,42.9 L167.777429,42.9 Z" id="Shape"></path>
                <path d="M252.420368,65.85 L252.420368,66.75 L238.236956,67.65 L236.864368,66.3 L237.321897,61.8 L236.864368,61.35 C233.204133,65.4 227.71378,67.65 221.308369,67.65 C208.497545,67.65 202.549663,58.2 202.549663,45.15 C202.549663,29.4 211.242722,20.4 225.883663,20.4 C230.916486,20.4 234.119192,21.75 236.864368,23.1 L236.864368,3.3 L231.374015,1.95 L231.374015,1.5 L245.557427,0.15 L246.930015,1.5 L246.930015,64.5 L252.420368,65.85 L252.420368,65.85 Z M237.321897,24.45 C234.119192,22.65 230.916486,22.2 227.71378,22.2 C218.105663,22.2 213.072839,30.3 213.072839,44.25 C213.072839,56.85 218.105663,65.4 226.341192,65.4 C230.458957,65.4 234.576721,63.15 237.321897,60 L237.321897,24.45 L237.321897,24.45 Z" id="Shape"></path>
                <path d="M289.480249,30.75 C289.480249,24.9 284.904955,21.3 278.957073,19.5 C276.669426,19.05 273.924249,18.6 271.636602,18.6 C269.348955,18.6 266.603779,19.05 264.316132,19.5 C258.825779,21.3 254.250485,24.9 254.250485,30.3 C254.250485,38.4 262.943544,39.3 272.094132,40.65 C282.159779,42 292.682955,42.9 292.682955,53.7 C292.682955,60.9 287.650131,64.95 280.78719,67.2 C278.042014,68.1 275.296838,68.1 272.551661,68.1 C269.806485,68.1 267.061308,67.65 264.316132,66.75 C256.995662,64.5 251.505309,59.55 251.505309,51.9 L253.335426,51.9 C253.335426,58.65 258.36825,63.15 264.773661,64.95 C267.061308,65.85 269.806485,65.85 272.551661,65.85 C275.296838,65.85 277.584485,65.4 280.329661,64.95 C286.277543,63.15 290.852837,59.55 290.852837,53.25 C290.852837,44.25 281.24472,43.35 272.094132,42 C262.028485,40.65 252.420368,39.75 252.420368,29.85 C252.420368,23.1 257.453191,19.05 263.858603,17.25 C266.14625,16.35 268.891426,16.35 271.636602,16.35 C274.381779,16.35 277.126955,16.8 279.414602,17.25 C286.277543,19.05 291.310366,23.55 291.310366,30.3 L289.480249,30.3 L289.480249,30.75 Z" id="Shape"></path>
                <path d="M298.173307,42.45 C298.173307,45.6 298.630837,49.2 300.003425,52.35 C303.206131,60 310.069072,66.3 321.507307,66.3 C330.657895,66.3 338.435895,61.8 342.553659,53.7 L344.383777,53.7 C340.266012,63.15 332.030483,68.1 321.507307,68.1 C309.154013,68.1 301.833543,61.35 298.173307,52.8 C296.800719,49.65 296.34319,46.05 296.34319,42.45 C296.34319,38.85 296.800719,35.25 298.173307,32.1 C301.376013,23.55 309.154013,16.8 321.507307,16.8 C336.605777,16.8 346.671424,27.6 346.671424,42.45 L298.173307,42.45 L298.173307,42.45 Z M344.383777,40.65 C343.468718,27.6 334.31813,19.05 321.049777,19.05 C310.069072,19.05 302.748601,24.9 299.545896,33 C298.630837,35.7 297.715778,38.4 297.715778,41.1 L344.383777,41.1 L344.383777,40.65 Z" id="Shape"></path>
                <path d="M352.619306,67.65 L352.619306,17.25 L354.449423,17.25 L354.449423,28.05 C357.1946,20.85 364.057541,17.25 371.378011,17.25 C374.123188,17.25 376.868364,17.7 379.61354,18.6 L379.61354,20.4 C376.868364,19.5 373.665658,18.6 371.378011,18.6 C361.312364,18.6 354.449423,25.8 354.449423,35.7 L354.449423,67.65 L352.619306,67.65 L352.619306,67.65 Z" id="Shape"></path>
                <path d="M428.569186,17.25 L428.569186,67.65 L426.281539,67.65 L426.281539,53.7 C425.36648,56.85 423.993892,59.1 422.163774,61.35 C418.04601,65.85 411.640598,67.65 405.692716,67.65 C391.051775,67.65 383.273776,57.75 383.273776,44.25 L383.273776,17.25 L385.103893,17.25 L385.103893,44.25 C385.103893,56.85 391.966834,65.85 405.692716,65.85 C411.183069,65.85 416.673422,64.05 420.791186,60 C423.993892,56.85 425.82401,51.9 426.281539,45.15 L426.281539,17.25 L428.569186,17.25 L428.569186,17.25 Z" id="Shape"></path>
                <path d="M440.46495,29.4 C440.92248,27.15 442.295068,24.9 443.667656,23.55 C447.327891,19.05 452.818244,17.25 458.308597,17.25 L458.308597,17.25 C463.79895,17.25 468.831773,19.05 472.492008,22.65 C474.779655,25.35 476.609773,29.4 477.067302,33 C477.524832,29.4 479.354949,25.8 481.185067,23.55 C484.845302,19.05 490.335655,17.25 495.368478,17.25 L495.368478,17.25 C500.858831,17.25 505.891654,19.05 509.551889,22.65 C513.212125,26.25 515.042242,32.1 515.042242,39.75 L515.042242,40.2 L515.042242,68.1 L513.212125,68.1 L513.212125,40.2 L513.212125,39.75 C513.212125,32.55 511.382007,27.6 508.179301,24 C504.976596,20.85 500.858831,19.05 495.368478,19.05 L495.368478,19.05 C490.335655,19.05 485.760361,20.85 482.557655,24.45 C478.89742,28.95 477.982361,34.35 477.982361,39.75 L477.982361,67.2 L476.152243,67.2 L476.152243,39.75 C476.152243,34.35 475.237185,28.05 471.11942,23.55 C467.916714,20.4 463.79895,18.6 458.308597,18.6 L458.308597,18.6 C453.275773,18.6 448.70048,20.4 445.497774,24 C442.752597,27.15 440.92248,32.1 440.92248,38.85 L440.92248,67.2 L439.092362,67.2 L439.092362,16.8 L440.92248,16.8 L440.92248,29.4 L440.46495,29.4 Z" id="Shape"></path>
            </g>
        </g>
    </g>
</svg>