<?xml version="1.0" encoding="UTF-8" standalone="no"?>
<svg width="922px" height="216px" viewBox="0 0 922 216" version="1.1" xmlns="http://www.w3.org/2000/svg" xmlns:xlink="http://www.w3.org/1999/xlink" xmlns:sketch="http://www.bohemiancoding.com/sketch/ns">
    <!-- Generator: Sketch 3.2.2 (9983) - http://www.bohemiancoding.com/sketch -->
    <title>SS_Logo - Gold</title>
    <desc>Created with Sketch.</desc>
    <defs></defs>
    <g id="Page-1" stroke="none" stroke-width="1" fill="none" fill-rule="evenodd" sketch:type="MSPage">
        <g id="SS_Logo---Gold" sketch:type="MSLayerGroup">
            <g id="Logo" sketch:type="MSShapeGroup">
                <path d="M216.7,108 C216.7,167.6 168.3,216 108.7,216 C49.1,216 0.7,167.6 0.7,108 C0.7,48.4 49.1,0 108.7,0 C168.3,0 216.7,48.3 216.7,108" id="Shape" fill="#A0957F"></path>
                <path d="M194.4,85.2 C194.4,59.8 173.8,39.2 148.5,39 C140.5,25.4 125.7,16.2 108.7,16.2 C91.8,16.2 77,25.4 68.9,39 C43.6,39.1 23,59.8 23,85.2 C23,93.5 25.2,101.3 29.1,108 C25.3,114.7 23,122.5 23,130.8 C23,156.2 43.6,176.8 68.9,177 C76.9,190.6 91.7,199.8 108.7,199.8 C125.6,199.8 140.5,190.6 148.5,177 C173.8,176.8 194.4,156.2 194.4,130.8 C194.4,122.5 192.2,114.7 188.3,108 C192.2,101.2 194.4,93.5 194.4,85.2 L194.4,85.2 Z M193.3,85.2 C193.3,93.1 191.3,100.5 187.7,106.9 C182,97.5 173,90.2 162.3,86.8 C163.6,85.7 165,84.7 165.8,83.4 L164.6,83.6 C167.6,79.6 170.6,77.2 172,72.1 C172,72.1 168.8,74.4 168.1,76 C168.3,74.9 168,74.5 168,74.5 C167.2,76.1 165.6,77 164.5,78.4 L164.7,77.2 C164.7,77.2 162.9,78.3 161.6,80.6 C161.3,80.3 161.6,79.3 161.6,79.3 C159.7,80.7 159,82.1 157,83.1 C156.6,83.3 154.6,84.4 153.4,84.9 C153.1,84.9 152.7,84.8 152.4,84.8 C152.4,84.7 152.5,84.5 152.7,84.3 C151.9,84.2 151.4,84.4 150.9,84.8 L150.1,84.8 C150.1,84.6 150.2,84.4 150.4,84.1 C150.1,84.1 149.8,84.2 149.5,84.3 C153,77.8 155,70.4 155,62.5 C155,54.5 152.9,46.9 149.3,40.3 C173.6,40.7 193.3,60.7 193.3,85.2 L193.3,85.2 Z M149.4,131.7 C149.3,131.6 149.2,131.4 149.2,131.3 C149.9,131.3 150.7,131.2 151.4,131.2 C150.6,131.4 149.9,131.6 149.4,131.7 L149.4,131.7 Z M147.8,175.8 C131.6,175.7 117.5,167 109.7,154.1 C113.9,154 118,153.4 121.8,152.2 C121.8,152.3 121.9,152.3 121.9,152.4 C121.9,152.4 121.9,152.3 122,152.2 C122.3,152.1 122.6,152 123,151.9 C123.6,152.8 123.8,153.5 124.9,154.1 C125,153.6 125.1,152.8 125.1,152.8 C125.1,152.8 126.3,153.9 129.1,154.5 C128.3,153.9 128.1,152.3 127.2,151.1 C127.7,150.8 128.3,151.2 128.3,151.2 C128.2,151.1 128,150.6 127.6,150.1 C130.8,148.7 133.8,146.8 136.5,144.7 C137.5,144.9 138.6,145.1 139.9,144.9 C139.1,144.7 138.5,143.8 138.5,143.8 C138.5,143.8 141.1,144.4 144.5,143.9 C143.7,143.6 142.7,142.4 142.7,142.4 C142.7,142.4 146,143.5 151.1,141.7 C149.6,141 150,139.7 150,139.7 L151.5,139.7 C152.9,144.1 153.7,148.7 153.7,153.6 C153.8,161.7 151.6,169.3 147.8,175.8 L147.8,175.8 Z M63.6,153.6 C63.6,149.8 64.1,146.1 65,142.5 C69.4,143.6 72.2,142.8 72.2,142.8 C72.2,142.8 71.2,144 70.4,144.3 C73.8,144.8 76.4,144.2 76.4,144.2 C76.4,144.2 75.8,145.1 75,145.3 C77.3,145.5 79.2,145 80.4,144.4 C80.6,144.6 80.9,144.8 81.1,145 L80.8,145.3 C81,145.3 81.2,145.2 81.5,145.2 C83.8,146.9 86.2,148.3 88.7,149.5 C88.5,149.9 88.3,150.2 88.3,150.3 C88.3,150.3 88.9,150 89.4,150.2 C88.7,150.8 88.4,152.4 87.7,152.9 C90.8,152.7 91.5,151.3 91.5,151.3 C91.5,151.3 91.7,152 91.5,152.5 C92.2,152.1 92.5,151.7 92.8,151.2 C97.5,152.9 102.5,154 107.8,154.1 C99.9,167 85.8,175.7 69.7,175.8 C65.8,169.3 63.6,161.7 63.6,153.6 L63.6,153.6 Z M30.4,108 C35.6,99.2 43.7,92.3 53.4,88.7 C54.2,89.5 54.8,90.4 55.2,91.3 C54.6,91.7 53.8,91.2 53.8,91.2 C54.5,93.2 56,94.8 57.9,95.7 C57.6,96.2 55.9,96.2 55.9,96.2 C55.9,96.2 57.3,98.4 58.7,98.9 C57.9,99.4 57.1,98.8 57.1,98.8 C58.3,101.7 61.2,103 62.6,105.8 C61.6,106.7 59.9,106.1 59.9,106.1 C60.7,106.9 61.6,107.7 62.5,108.5 C62.6,115.9 64.4,122.8 67.6,129 C66.3,129.1 65,129.2 63.8,129.9 C49.5,128.2 37.4,119.8 30.4,108 L30.4,108 Z M69.5,40.1 C81.5,40.2 92.4,45 100.4,52.8 C100.3,54 100.2,54.9 100.3,54.9 C99.5,54.5 98.9,52.9 98.8,52.1 C98.2,53.6 100,56.3 98.7,56.7 C97.6,57 96.5,57.3 95.3,57.6 C96.2,58.1 98.6,62.1 96.8,62 C96,61.6 95.6,60.8 95.7,59.8 C95,61.2 94.8,62.6 94.7,63.9 C84,67.3 75,74.6 69.3,84 C65.7,77.6 63.7,70.2 63.7,62.3 C63.6,54.3 65.8,46.7 69.5,40.1 L69.5,40.1 Z M153.8,62.4 C153.8,70.3 151.8,77.7 148.2,84.1 C141.7,73.4 131,65.5 118.3,62.8 C117.7,60 116.5,57.4 114.7,55.1 C122.9,46 134.7,40.2 147.8,40.1 C151.6,46.7 153.8,54.3 153.8,62.4 L153.8,62.4 Z M153.8,108 C153.8,115.5 151.9,122.6 148.7,128.8 C148.3,128.8 148,128.7 147.6,128.7 C145.4,125.3 142.8,122.2 139.8,119.5 C140.5,119.3 141.7,118.8 142.6,118.2 C141.4,118.1 141.1,116.9 141.1,116.9 C141.1,116.9 144.2,116.3 146,115.1 C144.9,115.3 144.1,114.7 144.1,114.7 C147.5,112.3 150.7,108.7 153.6,105.5 C153.7,106.3 153.8,107.1 153.8,108 L153.8,108 Z M122.1,151 L122.1,150.8 L122.3,151 L122.1,151 L122.1,151 Z M94.6,65.2 C94.6,66.4 94.8,67.2 94.8,67.2 C94.8,67.2 93.9,66.7 93.6,65.6 C93.9,65.4 94.2,65.3 94.6,65.2 L94.6,65.2 Z M145,128.7 C145,128.7 145.4,128.5 145.9,128.2 C146,128.4 146.1,128.5 146.2,128.7 L145,128.7 L145,128.7 Z M142.8,127.4 C142.7,127 144.1,126.3 144.4,126.2 C144.7,126.5 144.9,126.9 145.2,127.2 C144.4,127.2 143.6,127.2 142.8,127.4 L142.8,127.4 Z M140.9,126.2 C140.9,126.2 141.3,124.9 141.3,124.2 C139.1,125.6 135.6,124.6 133.1,125.3 C132,125.6 130.9,125.9 129.8,126.3 C129.4,126.1 129,125.9 128.6,125.7 C132.2,123.8 136.2,123 139.9,121.1 C141.5,122.7 143,124.3 144.4,126.1 C144,126.1 142.9,125.8 140.9,126.2 L140.9,126.2 Z M109.1,151.7 C109.1,151 109.1,150 109,148.3 C108.9,145.8 107.2,136.7 110.4,135.5 C111.8,137 112.2,139.6 112.8,141.9 C111.9,145.3 110.7,148.6 109.1,151.7 L109.1,151.7 Z M88.7,127.4 C88.5,127.4 88.3,127.3 88,127.2 C88.1,127.1 88.3,127.1 88.4,127 C88.6,127.2 88.7,127.3 88.7,127.4 L88.7,127.4 Z M141.7,86.2 C142.1,86.1 142.5,86.1 143,86 C142.5,86.5 142,87.1 141.3,87.5 C141.3,87.5 141.2,87 141.7,86.2 L141.7,86.2 Z M134.4,88.3 C134.1,88.7 131.7,92.1 131.2,91.5 C130.7,90.9 131.2,89.6 131.5,89.1 C130.5,89.9 129.4,92.9 128.3,93 C128.1,93 128.4,91.2 128.4,91 C127.7,91.6 126,95.4 126,95.4 C125.7,95.4 125.6,94 125.6,93.8 C125,94.7 124.4,98.7 123.5,98.8 C123,98.9 122.8,96.8 122.9,96.4 C121.4,98.9 121.2,101.8 119.4,104.2 C118.7,105.1 118,105.9 117.3,106.7 C116.4,106.9 115.5,107 114.5,107.1 C114.6,106.8 114.6,106.6 114.7,106.4 C115.9,104.7 116.4,102.5 118,101.1 C119.5,99.8 120.2,97.3 120.7,95.2 C125.8,91.3 131.7,88.4 138.1,87 C136.5,87.7 134.8,91.5 134.4,88.3 L134.4,88.3 Z M138.3,86.8 C139.1,86.6 140,86.5 140.8,86.3 C139.8,86.9 138.5,87.7 138.5,87.7 C138.4,87.5 138.3,87.2 138.3,86.8 L138.3,86.8 Z M100.5,108.2 C99.5,108.4 98.5,108.6 97.5,108.9 C96.7,108.3 96.1,107.5 95.7,106.7 C97.2,107.2 98.8,107.5 100.4,107.8 C100.4,107.9 100.5,108 100.5,108.2 L100.5,108.2 Z M100.6,109.3 C100.5,109.7 100.3,110.1 99.7,110.1 C99.4,110 99.2,109.8 98.9,109.6 C99.4,109.5 100,109.4 100.6,109.3 L100.6,109.3 Z M114.8,109.5 C114.4,110 114.3,109.6 114.3,109 C114.6,109 114.9,109.1 115.2,109.1 C115,109.2 114.9,109.3 114.8,109.5 L114.8,109.5 Z M95.7,100.4 C96.1,101 98.5,104 99.8,106.5 C98.1,106.2 96.5,105.7 94.9,105.2 C93.7,102.4 93.4,99.2 91.5,96.4 C91.5,96.8 91.4,98.9 90.9,98.8 C90,98.7 89.4,94.7 88.8,93.9 C88.8,94.1 88.8,95.6 88.4,95.5 C88.4,95.5 86.6,91.7 85.9,91.1 C86,91.4 86.3,93.2 86.1,93.2 C84.9,93.1 83.9,90.1 82.9,89.3 C83.2,89.8 83.7,91.2 83.2,91.7 C82.7,92.3 80.3,88.9 80,88.5 C79.6,91.8 77.7,87.7 76.1,87 C76.1,87.3 76,87.7 75.9,88 C75.9,88 72.9,86.1 72.5,86.1 C73.4,87.1 73.2,87.8 73.2,87.8 C72.2,87.2 71.6,86.3 70.8,85.6 C79.8,85.9 88.1,88.8 95,93.6 C94.2,93.6 93.2,93.2 93.2,93.2 C93.6,95.7 94.4,98.3 95.7,100.4 L95.7,100.4 Z M87.8,126.1 C87.3,126.3 86.7,126.6 86.2,126.8 C84.7,126.4 83.2,125.9 81.7,125.5 C79.4,124.9 76.2,125.7 74,124.7 C74.8,123.8 75.6,122.9 76.4,122 C80.5,123 85.3,122.9 87.8,126.1 L87.8,126.1 Z M73.6,125.4 C73.7,126 73.9,126.6 73.9,126.6 C73.5,126.5 73.1,126.5 72.8,126.5 C73,126.1 73.3,125.8 73.6,125.4 L73.6,125.4 Z M71.8,127.7 C71.8,127.8 71.9,127.8 71.9,127.9 L71.7,127.9 C71.8,127.8 71.8,127.8 71.8,127.7 L71.8,127.7 Z M106,135.1 C108,135.8 107.6,146.3 107.6,150.2 C106.1,147.1 104.9,143.8 104.2,140.3 C104.5,138.3 104.9,136.4 106,135.1 L106,135.1 Z M127.4,126.4 C127.6,126.5 127.8,126.6 128,126.7 C127.3,126.9 126.7,127.1 125.9,127.2 C126.5,126.9 127,126.7 127.4,126.4 L127.4,126.4 Z M115.6,108 C115.8,108 116,107.9 116.2,107.9 C116.2,108 116.1,108 116.1,108.1 C115.9,108 115.7,108 115.6,108 L115.6,108 Z M146.3,84.7 C145.9,84.7 145.6,84.7 145.2,84.8 C145.2,84.6 145.3,84.5 145.3,84.5 C145,84.6 144.8,84.7 144.5,84.9 C135.8,85.6 127.9,88.7 121.2,93.5 L121.2,93.5 C121.2,93.5 120.1,94.1 119.2,93.9 C120.7,91.5 122.9,86.8 122.8,84.5 C122.8,84.5 122.1,85.2 121.3,85.4 C122.4,83 122.5,80.3 122.5,78.7 C122.1,80.2 120.8,81.2 120.8,81.2 C121.5,77.3 122.3,73.7 121.4,69.7 C121.4,69.7 120.8,72 120.1,72.5 C120.3,70.3 120.2,67 119.9,65.4 C119.7,66.7 118.6,67.3 118.6,67.3 C118.7,66.2 118.6,65.1 118.5,64.1 C130.5,66.8 140.6,74.3 146.9,84.4 C146.7,84.4 146.5,84.5 146.3,84.7 L146.3,84.7 Z M93.4,72.3 C92.8,71.9 92,69.5 92,69.5 C91.2,73.5 92.2,77.1 92.9,81 C92.9,81 91.6,80 91.1,78.5 C91.1,80.8 91.4,83.1 92.5,85.2 C91.8,85 91.5,87.2 91.4,87.4 C91,89 91.7,90.1 92.6,91.1 C86,87.2 78.3,84.8 70.1,84.6 C75.4,75.9 83.6,69.1 93.3,65.6 C93.2,67.3 93.2,70.3 93.4,72.3 L93.4,72.3 Z M70.5,115 C70.5,115 70.4,115.9 68.8,116.1 C70.6,117.4 73.5,117.2 73.5,117.2 C73.5,117.2 73.4,119.3 72.2,119.4 C73.6,120.4 75.6,120 75.6,120 C75.6,120 75.2,120.9 73.8,121.3 C74.2,121.5 74.7,121.6 75.2,121.7 C73.8,123.1 72.6,124.7 71.4,126.3 C70.7,126.4 70.3,126.5 70.3,126.5 C70.3,126.5 70.7,126.7 71,126.9 C70.8,127.2 70.6,127.4 70.4,127.6 C69.7,127.6 69,127.7 68.4,127.9 C65.6,122.3 63.9,116 63.7,109.4 C65.9,111.6 68.2,113.6 70.5,115 L70.5,115 Z M68.6,128.5 C69.3,128.6 69.7,128.8 69.7,128.8 C69.4,128.9 69.1,128.9 68.8,128.9 C68.7,128.7 68.6,128.6 68.6,128.5 L68.6,128.5 Z M81.9,143.6 C81.9,143.6 81.8,143.8 81.7,144.1 C81.6,144 81.5,144 81.5,143.9 C81.7,143.7 81.9,143.6 81.9,143.6 L81.9,143.6 Z M86.2,143.3 C86.2,143.3 86.3,144 85.8,144.6 C91.5,143.3 94.9,137.7 100,135.2 C96.6,139 91.5,142.2 89.5,147 C89.7,147 89.9,147 90.2,147.1 C90.2,147.1 89.8,147.9 89.3,148.6 C87.1,147.6 85,146.4 83.1,145 C84.9,144.4 86.2,143.3 86.2,143.3 L86.2,143.3 Z M93.9,149.6 C93.8,149.9 94,150.3 94.2,150.6 C93.9,150.5 93.6,150.4 93.4,150.3 C93.4,150.1 93.6,149.8 93.9,149.6 L93.9,149.6 Z M101,145.7 C101,145.7 101.5,146.5 101.1,147.7 C102.7,146.7 103.3,144.9 103.7,142.9 C104.7,146.4 106,149.8 107.7,152.9 C107.7,152.9 107.7,152.9 107.7,153 C103.4,152.9 99.3,152.3 95.4,151.1 C97.9,150.1 100.3,148.4 101,145.7 L101,145.7 Z M113.5,143.8 C114,144.8 114.6,145.7 115.7,146.1 C115.5,145.3 115.5,144.7 115.5,144.7 C116.5,147.8 119.1,149.1 121,151.3 C117.4,152.3 113.6,152.9 109.6,153 C111.3,150.1 112.5,147 113.5,143.8 L113.5,143.8 Z M126.3,147.6 C126.6,147.5 126.8,147.4 127.1,147.5 C123.5,143.2 119.6,138.9 115.2,135.4 L115.2,135.3 C120.2,137.9 123.6,143.2 129.2,144.4 C128.6,143.8 128.8,143.1 128.8,143.1 C128.8,143.1 131.4,145.4 134.3,145 C133.4,144.3 133.2,143.3 133.2,143.3 C133.2,143.3 134,143.9 135.4,144.4 C132.9,146.3 130.1,147.9 127.2,149.2 C126.6,148.3 126.2,147.7 126.3,147.6 L126.3,147.6 Z M153.6,104.8 C153.1,104.8 152.4,104.9 152.1,104.7 C152.5,104 152.9,103.4 153.5,102.8 C153.5,103.4 153.5,104.1 153.6,104.8 L153.6,104.8 Z M114.6,55.2 C114.6,55.5 114.6,56.6 114.2,57.1 C114.1,56.7 114,56.3 113.9,55.9 C114.2,55.7 114.4,55.4 114.6,55.2 L114.6,55.2 Z M149.3,130.2 C150,129.9 150.9,129.7 151.2,129.7 C150.7,129.4 150.3,129.2 149.8,129 C153,122.7 154.9,115.5 154.9,108 C154.9,105.9 154.7,103.8 154.4,101.8 C155.5,100.8 156.7,99.8 157.3,98.2 C157.3,98.2 156.6,98.8 155.7,98.3 C157.1,97.7 158.5,95.5 158.5,95.5 C158.5,95.5 156.8,95.5 156.5,95 C158.4,94 159.9,92.4 160.6,90.4 C160.6,90.4 159.9,91 159.2,90.6 C159.6,89.4 160.4,88.5 161.3,87.7 C172.2,91 181.3,98.4 187,108 C179.3,121 165.3,129.8 149.3,130.2 L149.3,130.2 Z M108.7,17.3 C125,17.3 139.3,26 147.2,39 C133.9,39.3 122,45.2 113.7,54.5 C113.2,52 112.6,49.3 112.4,46.9 C112.4,46.9 111.7,48.9 111,48.6 C110.5,46.3 111.3,41.6 110.2,37 C110.1,38.4 109,39.3 109,39.3 C107.6,33.5 109.1,26.6 106.3,21.4 C106.8,27.5 103.2,33.1 104.6,39.4 C104.1,39.5 103.3,37.5 103.3,37.5 C103.1,39 103.9,48 103.3,48.4 C102.5,48.9 101.5,46 101.5,45.8 C101.3,46.4 100.9,49.2 100.6,51.6 C92.6,44.1 81.9,39.5 70.2,39.2 C78.1,26 92.4,17.3 108.7,17.3 L108.7,17.3 Z M24.1,85.2 C24.1,60.7 43.8,40.7 68.2,40.2 C64.6,46.8 62.5,54.4 62.5,62.4 C62.5,70.5 64.6,78.1 68.3,84.7 L67.6,84.7 C67.4,84.6 67.2,84.4 67,84.3 L67,84.7 L66.6,84.7 C66.2,84.3 65.7,83.8 64.7,83.5 C65,84 64.8,84.6 64.8,84.6 C64.4,83.7 63.6,82.8 62.5,82.6 C63.9,86.1 59.2,81.8 58.1,81.7 C58.2,82.1 58.2,82.5 58,82.9 C56.8,83 54.7,80.4 53,80.2 C53,80.2 53.5,81.2 53.2,81.4 C52.3,78.9 49.8,78.5 49.8,78.5 L50,79.2 C48.3,77.9 45.8,77.8 44.4,76.1 C45.3,79.3 48.9,80.4 49.7,83.9 L47.8,83.1 C48.9,84.8 50.9,86.2 52.5,87.7 C43,91.4 35,98.2 29.7,106.8 C26.1,100.5 24.1,93 24.1,85.2 L24.1,85.2 Z M24.1,130.8 C24.1,122.9 26.1,115.5 29.7,109.1 C37.3,121.6 50.7,130.3 66.2,131.2 C66.3,131.3 66.4,131.4 66.3,131.5 C66.1,131.8 61.4,131.5 60.6,131.9 C61.5,131.9 62.2,132.2 62.6,132.9 C62.6,132.6 57.5,133.6 56.9,134.1 C57.4,134.2 58.8,135.2 58.8,135.2 C56.5,135.5 54.5,134.3 52.2,135.2 C52.7,135.5 53,135.9 53,135.9 C53,135.9 50.7,135.5 48.4,136.1 C42.6,137.5 39.5,136.7 39.5,136.7 C43.8,139.9 50.7,142.6 56,140.4 C56,140.4 56.4,141.2 55.6,141.7 C57.8,142.1 62.3,141.6 64.5,140.4 C64.3,140.9 64.2,141.5 64.1,142.1 C64,142.1 64,142.2 63.9,142.2 L64,142.2 C63.1,145.8 62.5,149.6 62.5,153.5 C62.5,161.5 64.6,169.1 68.2,175.7 C43.8,175.3 24.1,155.3 24.1,130.8 L24.1,130.8 Z M108.7,198.7 C92.4,198.7 78.1,190 70.2,177 C85.8,176.7 99.6,168.5 107.7,156.3 L107.7,159.1 C107.7,165.2 107.6,171.2 108,177.3 C108.2,181.1 108.1,184.8 107,188.5 C106.6,189.8 105.2,192.2 106.7,193.3 C112.8,197.8 110.4,182.4 110.2,179.9 C109.6,172.6 109.1,165.4 109.1,158.1 L109.1,155.3 C117.1,168.1 131.2,176.7 147.2,177 C139.3,189.9 125,198.7 108.7,198.7 L108.7,198.7 Z M193.3,130.8 C193.3,155.3 173.6,175.3 149.2,175.8 C152.8,169.2 154.9,161.6 154.9,153.6 C154.9,148.8 154.1,144.1 152.8,139.7 C154.1,139.7 155.4,139.6 156.6,139.4 C158.3,139.1 159.7,140.1 161.4,139.8 C160.7,139.2 161,138.5 161,138.5 C165.4,140.2 171.8,138.7 175.5,135.8 C171,136.3 166.4,135.1 162,135.8 C162,135.8 162.2,135.4 162.8,135.1 C160.7,134.6 158,135.8 156.2,134.6 C156.2,134.6 157.5,133.8 158,133.7 C156.5,133.1 148.2,134.1 154,131 C168.3,129.2 180.6,120.9 187.8,109.1 C191.2,115.5 193.3,122.9 193.3,130.8 L193.3,130.8 Z" id="Shape" fill="#FFFFFF"></path>
            </g>
            <g id="Text" transform="translate(243.000000, 64.000000)" fill="#A0957F" sketch:type="MSShapeGroup">
                <path d="M0.423684211,74 L2.83421053,74 C5.24473684,86 13.6815789,88.4 20.9131579,88.4 C30.5552632,88.4 37.1842105,83.6 37.1842105,75.8 C37.1842105,68 31.1578947,66.2 20.9131579,63.8 C10.6684211,60.8 0.423684211,58.4 0.423684211,45.2 C0.423684211,35 7.05263158,27.2 22.7210526,27.2 C28.7473684,27.2 34.1710526,28.4 38.9921053,30.8 L41.4026316,28.4 L42.6078947,29.6 L42.6078947,42.8 L40.1973684,42.8 C37.7868421,30.8 29.35,28.4 23.3236842,28.4 C14.8868421,28.4 9.46315789,33.2 9.46315789,39.8 C9.46315789,47 14.8868421,48.8 23.3236842,51.2 C34.1710526,54.8 46.2236842,57.8 46.2236842,71.6 C46.2236842,82.4 38.9921053,89.6 21.5157895,89.6 C14.8868421,89.6 8.86052632,88.4 4.03947368,86 L1.62894737,88.4 L0.423684211,87.2 L0.423684211,74 L0.423684211,74 Z" id="Shape"></path>
                <path d="M85.3947368,82.4 C79.3684211,87.8 71.5342105,90.8 63.0973684,90.8 C51.6473684,90.8 46.2236842,84.8 46.2236842,76.4 C46.2236842,62 60.6868421,59.6 85.3947368,56 L85.3947368,44 C85.3947368,35.6 80.5736842,29.6 72.1368421,29.6 C69.1236842,29.6 66.1105263,30.2 63.0973684,32.6 L63.0973684,42.8 C63.0973684,47.6 60.0842105,51.2 55.2631579,51.2 C51.0447368,51.2 48.0315789,48.2 48.0315789,43.4 C48.0315789,33.8 60.0842105,28.4 72.7394737,28.4 C89.6131579,28.4 98.6526316,36.8 98.6526316,47 L98.6526316,84.8 C98.6526316,87.2 99.8578947,87.8 101.665789,87.8 C102.871053,87.8 104.678947,87.2 105.884211,86.6 L106.486842,87.2 C104.076316,89.6 99.8578947,90.8 95.0368421,90.8 C90.2157895,90.2 86.6,88.4 85.3947368,82.4 L85.3947368,82.4 L85.3947368,82.4 Z M85.3947368,57.8 C67.9184211,60.8 59.4815789,61.4 59.4815789,75.2 C59.4815789,83 63.7,86.6 69.7263158,86.6 C75.15,86.6 81.1763158,83.6 85.3947368,79.4 L85.3947368,57.8 L85.3947368,57.8 Z" id="Shape"></path>
                <path d="M144.452632,32.6 C140.836842,30.2 137.221053,29.6 133.605263,29.6 C121.552632,29.6 114.923684,40.4 114.923684,57.2 C114.923684,75.8 122.757895,87.2 138.426316,87.2 C145.657895,87.2 151.684211,84.8 156.505263,80 L157.710526,81.8 C151.684211,87.8 143.85,91.4 133.002632,91.4 C111.910526,91.4 101.665789,78.8 101.665789,60.2 C101.665789,40.4 113.115789,28.4 133.605263,28.4 C146.863158,28.4 160.121053,33.8 160.121053,44.6 C160.121053,50 156.505263,52.4 152.286842,52.4 C147.465789,52.4 144.452632,49.4 144.452632,44 L144.452632,32.6 L144.452632,32.6 Z" id="Shape"></path>
                <path d="M163.736842,32 L156.505263,30.2 L156.505263,29 L175.186842,27.2 L176.994737,29 L176.392105,39.8 L176.994737,40.4 C176.994737,40.4 183.021053,27.8 195.073684,27.8 C202.907895,27.8 209.536842,33.2 209.536842,41 C209.536842,47 205.921053,49.4 201.702632,49.4 C196.881579,49.4 193.868421,46.4 193.868421,41 L193.868421,30.8 C193.265789,30.2 192.663158,30.2 192.060526,30.2 C182.418421,30.2 176.994737,44.6 176.994737,44.6 L176.994737,86.6 L188.444737,89 L188.444737,90.2 L156.505263,90.2 L156.505263,89 L163.736842,86.6 L163.736842,32 L163.736842,32 Z" id="Shape"></path>
                <path d="M220.986842,59 C220.986842,76.4 228.821053,86.6 245.092105,86.6 C252.323684,86.6 258.35,84.8 263.171053,79.4 L264.376316,80.6 C258.35,86.6 250.515789,90.2 239.065789,90.2 C217.371053,90.2 207.126316,77 207.126316,59 C207.126316,39.2 220.384211,26.6 238.463158,26.6 C254.734211,26.6 266.184211,36.8 266.184211,51.8 C266.184211,53 266.184211,55.4 265.581579,56.6 L263.773684,58.4 L220.986842,58.4 L220.986842,59 Z M220.986842,57.2 L254.131579,55.4 C254.131579,38 248.707895,29.6 239.668421,29.6 C230.628947,29.6 221.589474,38 220.986842,57.2 L220.986842,57.2 Z" id="Shape"></path>
                <path d="M332.473684,87.8 L332.473684,89 L313.792105,90.2 L311.984211,88.4 L312.586842,82.4 L311.984211,81.8 C307.163158,87.2 299.931579,90.2 291.494737,90.2 C274.621053,90.2 266.786842,77.6 266.786842,60.2 C266.786842,39.2 278.236842,27.2 297.521053,27.2 C304.15,27.2 308.368421,29 311.984211,30.8 L311.984211,4.4 L304.752632,2.6 L304.752632,2 L323.434211,0.2 L325.242105,2 L325.242105,86 L332.473684,87.8 L332.473684,87.8 Z M312.586842,32.6 C308.368421,30.2 304.15,29.6 299.931579,29.6 C287.276316,29.6 280.647368,40.4 280.647368,59 C280.647368,75.8 287.276316,87.2 298.123684,87.2 C303.547368,87.2 308.971053,84.2 312.586842,80 L312.586842,32.6 L312.586842,32.6 Z" id="Shape"></path>
                <path d="M381.286842,41 C381.286842,33.2 375.260526,28.4 367.426316,26 C364.413158,25.4 360.797368,24.8 357.784211,24.8 C354.771053,24.8 351.155263,25.4 348.142105,26 C340.910526,28.4 334.884211,33.2 334.884211,40.4 C334.884211,51.2 346.334211,52.4 358.386842,54.2 C371.644737,56 385.505263,57.2 385.505263,71.6 C385.505263,81.2 378.876316,86.6 369.836842,89.6 C366.221053,90.8 362.605263,90.8 358.989474,90.8 C355.373684,90.8 351.757895,90.2 348.142105,89 C338.5,86 331.268421,79.4 331.268421,69.2 L333.678947,69.2 C333.678947,78.2 340.307895,84.2 348.744737,86.6 C351.757895,87.8 355.373684,87.8 358.989474,87.8 C362.605263,87.8 365.618421,87.2 369.234211,86.6 C377.068421,84.2 383.094737,79.4 383.094737,71 C383.094737,59 370.439474,57.8 358.386842,56 C345.128947,54.2 332.473684,53 332.473684,39.8 C332.473684,30.8 339.102632,25.4 347.539474,23 C350.552632,21.8 354.168421,21.8 357.784211,21.8 C361.4,21.8 365.015789,22.4 368.028947,23 C377.068421,25.4 383.697368,31.4 383.697368,40.4 L381.286842,40.4 L381.286842,41 Z" id="Shape"></path>
                <path d="M392.736842,56.6 C392.736842,60.8 393.339474,65.6 395.147368,69.8 C399.365789,80 408.405263,88.4 423.471053,88.4 C435.523684,88.4 445.768421,82.4 451.192105,71.6 L453.602632,71.6 C448.178947,84.2 437.331579,90.8 423.471053,90.8 C407.2,90.8 397.557895,81.8 392.736842,70.4 C390.928947,66.2 390.326316,61.4 390.326316,56.6 C390.326316,51.8 390.928947,47 392.736842,42.8 C396.955263,31.4 407.2,22.4 423.471053,22.4 C443.357895,22.4 456.615789,36.8 456.615789,56.6 L392.736842,56.6 L392.736842,56.6 Z M453.602632,54.2 C452.397368,36.8 440.344737,25.4 422.868421,25.4 C408.405263,25.4 398.763158,33.2 394.544737,44 C393.339474,47.6 392.134211,51.2 392.134211,54.8 L453.602632,54.8 L453.602632,54.2 Z" id="Shape"></path>
                <path d="M464.45,90.2 L464.45,23 L466.860526,23 L466.860526,37.4 C470.476316,27.8 479.515789,23 489.157895,23 C492.773684,23 496.389474,23.6 500.005263,24.8 L500.005263,27.2 C496.389474,26 492.171053,24.8 489.157895,24.8 C475.9,24.8 466.860526,34.4 466.860526,47.6 L466.860526,90.2 L464.45,90.2 L464.45,90.2 Z" id="Shape"></path>
                <path d="M564.486842,23 L564.486842,90.2 L561.473684,90.2 L561.473684,71.6 C560.268421,75.8 558.460526,78.8 556.05,81.8 C550.626316,87.8 542.189474,90.2 534.355263,90.2 C515.071053,90.2 504.826316,77 504.826316,59 L504.826316,23 L507.236842,23 L507.236842,59 C507.236842,75.8 516.276316,87.8 534.355263,87.8 C541.586842,87.8 548.818421,85.4 554.242105,80 C558.460526,75.8 560.871053,69.2 561.473684,60.2 L561.473684,23 L564.486842,23 L564.486842,23 Z" id="Shape"></path>
                <path d="M580.155263,39.2 C580.757895,36.2 582.565789,33.2 584.373684,31.4 C589.194737,25.4 596.426316,23 603.657895,23 L603.657895,23 C610.889474,23 617.518421,25.4 622.339474,30.2 C625.352632,33.8 627.763158,39.2 628.365789,44 C628.968421,39.2 631.378947,34.4 633.789474,31.4 C638.610526,25.4 645.842105,23 652.471053,23 L652.471053,23 C659.702632,23 666.331579,25.4 671.152632,30.2 C675.973684,35 678.384211,42.8 678.384211,53 L678.384211,53.6 L678.384211,90.8 L675.973684,90.8 L675.973684,53.6 L675.973684,53 C675.973684,43.4 673.563158,36.8 669.344737,32 C665.126316,27.8 659.702632,25.4 652.471053,25.4 L652.471053,25.4 C645.842105,25.4 639.815789,27.8 635.597368,32.6 C630.776316,38.6 629.571053,45.8 629.571053,53 L629.571053,89.6 L627.160526,89.6 L627.160526,53 C627.160526,45.8 625.955263,37.4 620.531579,31.4 C616.313158,27.2 610.889474,24.8 603.657895,24.8 L603.657895,24.8 C597.028947,24.8 591.002632,27.2 586.784211,32 C583.168421,36.2 580.757895,42.8 580.757895,51.8 L580.757895,89.6 L578.347368,89.6 L578.347368,22.4 L580.757895,22.4 L580.757895,39.2 L580.155263,39.2 Z" id="Shape"></path>
            </g>
        </g>
    </g>
</svg>